<?xml version="1.0" encoding="utf-8"?>
<!-- Generator: Adobe Illustrator 15.0.2, SVG Export Plug-In  -->
<!DOCTYPE svg PUBLIC "-//W3C//DTD SVG 1.1//EN" "http://www.w3.org/Graphics/SVG/1.1/DTD/svg11.dtd" [
	<!ENTITY ns_flows "http://ns.adobe.com/Flows/1.0/">
]>
<svg version="1.1"
	 xmlns="http://www.w3.org/2000/svg" xmlns:xlink="http://www.w3.org/1999/xlink" xmlns:a="http://ns.adobe.com/AdobeSVGViewerExtensions/3.0/"
	 x="0px" y="0px" width="171px" height="60px" viewBox="-3.299 -3.445 171 60"
	 overflow="visible" enable-background="new -3.299 -3.445 171 60" xml:space="preserve">
<defs>
</defs>
<path fill="#D92C27" d="M43.472,34.343c-0.039-0.222-0.071-0.456-0.103-0.709h0.012l8.703-8.793l6.722-6.812
	c0,0,2.527-2.693,2.322-6.305C60.076,5.182,59.223,0,59.223,0L42.335,6.98l-0.077,0.038l0.314,1.261c0,0,4.298-1.671,5.73-0.062
	c0.182,0.197,0.351,0.329,0.604,1.063c0.399,1.31,0.99,3.981,2.058,9.863c0.216,1.29-0.282,2.133-0.539,2.489
	c-0.038,0.05-0.066,0.076-0.066,0.076l-7.592,7.772c-0.297-1.969-0.208-1.371-0.003,0.007l-0.009,0.012
	c-1.706-11.232-4.668-29.452-4.668-29.452L21.106,7.056l0.318,1.279c0,0,4.298-1.681,5.731-0.076
	c0.182,0.212,0.354,0.342,0.606,1.082c0.393,1.289,0.986,3.96,2.06,9.839c0.267,1.733-0.69,2.68-0.69,2.68l-7.51,7.676
	C19.92,18.306,16.97,0.172,16.97,0.172L0,7.184l0.312,1.272c0,0,4.296-1.675,5.733-0.056c0.678,0.753,1.123,0.43,6.734,34.402
	c0,0,0.855,4.616-3.9,8.707l1.295,1.586c0,0,13.552-8.978,12.185-18.608c-0.028-0.258-0.071-0.518-0.115-0.785l8.661-8.735
	c0.791,4.511,1.767,10.276,2.985,17.707c0,0,0.851,4.605-3.904,8.705l1.31,1.579C31.295,52.958,44.836,43.992,43.472,34.343"/>
<path fill="#D92C27" d="M103.991,23.032c-0.075,0.357-0.161,0.717-0.256,1.07c-0.292,1.201-0.559,2.315-0.562,2.315h4.794
	c0,0,0.294-1.214,0.63-2.501c0.374-1.473,0.789-3.061,0.789-3.07c0.613-2.554-1.012-6.803-4.984-6.093
	c-1.446,0.268-2.75,0.971-4.016,1.729c-1.855,1.097-3.57,2.515-5.211,3.963l-2.916,10.054l-6.635,0.007
	c1.41-5.42,2.384-6.006-0.08-9l-3.696,1.781c0.5,1.189,0.31,1.936,0.122,2.884c-0.444,1.479-1.244,4.369-1.244,4.369h-2.598
	l-0.78,2.471l2.679-0.009l-4.114,16.844c0.083,0.786,1.827,3.233,3.94,3.251l6.055-3.821l-0.738-1.285
	c-3.571,2.361-3.981,0.708-3.957-0.066c1.274-4.943,3.666-14.9,3.666-14.9h5.824c0,0,1.029-0.12,0.775,0.768l-4.545,18.813
	l4.988-0.042l4.758-19.534l3.314-0.005c0.92,0.121,1.557,0.452,1.266,1.588c0,0-3.682,15.142-3.709,15.234
	c0.069,0.786,1.822,3.233,3.927,3.251l6.057-3.821l-0.731-1.28c-1.585,1.036-2.542,1.288-3.11,1.196l-0.052-0.022l-0.072-0.017
	l-0.074-0.021h-0.029c-0.533-0.229-0.638-0.814-0.619-1.207c1.275-4.943,4.266-17.418,4.266-17.418H97.25l2.443-9.432
	c0.559-1.437,2.33-2.698,3.688-2.48c1.474,0.236,1.124,2.174,0.677,4.152C104.04,22.844,104.019,22.953,103.991,23.032"/>
<path fill="#D92C27" d="M77.001,35.166L77.001,35.166c-0.112-0.246-0.226-0.493-0.348-0.72c-1.137-2.35-2.56-3.427-4.018-3.847
	c-0.061-0.029-0.142-0.039-0.208-0.065c-0.33-0.077-0.724-0.124-1.137-0.124c-2.823,0.021-7.164,1.921-8.262,4.795
	c-0.576,1.494-1.382,4.145-1.177,5.644c0.027,0.175,0.062,0.348,0.119,0.492c0.189,0.465,0.503,0.822,0.909,1.128
	c1.039,0.814,2.739,1.168,4.268,1.661l0.069,0.03c0.13,0.041,0.275,0.09,0.408,0.131c0.622,0.261,1.107,0.602,1.211,1.189
	c0.165,0.943-0.328,2.675-0.98,3.748c-1.547,2.603-3.544,1.028-5.429-3.108l-0.042,0.015h-0.005
	c-0.132,0.074-3.574,2.137-3.691,2.218c0.106,0.256,0.231,0.492,0.355,0.719c1.123,2.354,2.542,3.432,4.015,3.855
	c0.071,0.022,0.146,0.044,0.214,0.062c0.331,0.089,0.72,0.128,1.132,0.115c2.812-0.016,7.163-1.918,8.263-4.789
	c0.572-1.5,1.371-4.141,1.171-5.642c-0.021-0.188-0.065-0.35-0.124-0.498c-0.186-0.454-0.496-0.818-0.894-1.113
	c-1.049-0.828-2.746-1.181-4.279-1.681l-0.064-0.013c-0.141-0.052-0.267-0.099-0.397-0.146c-0.632-0.257-1.123-0.599-1.225-1.181
	c-0.165-0.948,0.331-2.669,0.978-3.74c1.557-2.61,3.559-1.026,5.446,3.099l0.02-0.014h0.015
	C73.442,37.32,76.883,35.243,77.001,35.166"/>
<path fill="#D92C27" d="M149.163,35.923l-2.732,10.046c-0.152,0.604-0.457,0.852-0.664,1.089c-3.301,2.694-7.166,3.77-5.779-1.977
	c0,0,2.35-9.344,2.764-9.983C144.836,32.333,149.459,31.968,149.163,35.923 M164.641,15.078c-3.531-0.084-7.426,0.244-10.029,3.042
	c-1.492,2.854-4.414,13.503-4.414,13.503c-0.891-1.289-8.037-2.937-12.145,2.621l-0.029,0.056
	c-0.537,1.095-3.561,13.237-3.594,13.255c-0.986,0.72-3.703,1.745-4.1,1.704c-0.609-0.273-0.932-0.75-0.832-1.435
	c2.676-9.263,4.525-18.742,7.533-27.871c1.121-2.317,3.607-3.338,5.982-3.622l-0.098-1.254c-3.514-0.084-7.41,0.244-10.018,3.042
	c-1.953,3.257-8.453,30.439-8.453,30.439c-0.324,2.254,2.037,4.713,3.633,4.537c2.332-1.017,4.418-2.431,6.594-3.742
	c0.719,0.984,1.873,2.274,2.836,2.967c2.805,2.046,8.326-1.599,8.359-1.545c0.779,1.229,1.99,2.559,4.076,2.163
	c1.596-0.526,7.814-4.645,7.814-4.645l-0.832-1.379c0,0-3.289,2.127-5.178,2.333c0,0-1.123-0.08-0.785-1.402l7.77-27.892
	c1.133-2.317,3.621-3.338,5.982-3.622L164.641,15.078z"/>
<path fill="#D92C27" d="M120.852,37.558c-1.078,3.153-4.939,2.744-5.543,2.643v0.005c-0.104-0.05-0.066-0.237-0.066-0.237
	l0.973-3.778c0.598-2.154,3.207-3.419,4.291-3.126C122.293,33.783,120.852,37.558,120.852,37.558 M124.963,31.224
	c-1.627-1.616-5.162-0.693-7.41-0.131c-2.381,0.767-5.014,1.599-6.145,4.357c-0.904,3.188-2.422,9.095-3.264,12.981
	c-0.037,1.051,3.33,4.466,5.816,4.666c0.742,0.282,8.447-4.785,8.447-4.785l-0.824-1.397c0,0-3.125,2.023-5.027,2.275
	c-0.088,0.009-0.184-0.012-0.184-0.012c-1.109-0.165-2.482-1.012-2.865-1.999c-0.143-0.314,0.951-4.271,0.951-4.271
	s7.406,0.35,9.619-2.499C125.678,37.772,126.799,33.308,124.963,31.224"/>
<path fill="#D92C27" d="M55.914,37.558c-1.083,3.153-4.935,2.744-5.54,2.643v0.005c-0.109-0.05-0.064-0.237-0.064-0.237l0.977-3.778
	c0.603-2.154,3.196-3.419,4.283-3.126C57.361,33.783,55.914,37.558,55.914,37.558 M60.029,31.224
	c-1.634-1.616-5.167-0.693-7.422-0.131c-2.371,0.767-5.012,1.599-6.138,4.357c-0.909,3.188-2.418,9.095-3.25,12.981
	c-0.045,1.051,3.328,4.466,5.807,4.666c0.746,0.282,8.447-4.785,8.447-4.785l-0.82-1.397c0,0-3.139,2.023-5.036,2.275
	c-0.079,0.009-0.181-0.012-0.181-0.012c-1.109-0.165-2.47-1.012-2.856-1.999c-0.156-0.314,0.938-4.271,0.938-4.271
	s7.422,0.35,9.626-2.499C60.742,37.772,61.864,33.308,60.029,31.224"/>
</svg>
